<svg viewBox="0 0 920 580" xmlns="http://www.w3.org/2000/svg" font-family="'Segoe UI', system-ui, sans-serif">
  <defs>
    <!-- card glows -->
    <radialGradient id="g1" cx="50%" cy="50%" r="50%">
      <stop offset="0%" stop-color="#e57373" stop-opacity="1"/>
      <stop offset="100%" stop-color="#e57373" stop-opacity="0"/>
    </radialGradient>
    <radialGradient id="g2" cx="50%" cy="50%" r="50%">
      <stop offset="0%" stop-color="#4db6ac" stop-opacity="1"/>
      <stop offset="100%" stop-color="#4db6ac" stop-opacity="0"/>
    </radialGradient>
    <radialGradient id="g3" cx="50%" cy="50%" r="50%">
      <stop offset="0%" stop-color="#64b5f6" stop-opacity="1"/>
      <stop offset="100%" stop-color="#64b5f6" stop-opacity="0"/>
    </radialGradient>
    <radialGradient id="g4" cx="50%" cy="50%" r="50%">
      <stop offset="0%" stop-color="#ffb74d" stop-opacity="1"/>
      <stop offset="100%" stop-color="#ffb74d" stop-opacity="0"/>
    </radialGradient>
    <radialGradient id="g5" cx="50%" cy="50%" r="50%">
      <stop offset="0%" stop-color="#ba68c8" stop-opacity="1"/>
      <stop offset="100%" stop-color="#ba68c8" stop-opacity="0"/>
    </radialGradient>
    <filter id="blur4"><feGaussianBlur stdDeviation="4"/></filter>
    <filter id="blur6"><feGaussianBlur stdDeviation="6"/></filter>
  </defs>

  <!-- ── background ── -->
  <rect width="920" height="580" fill="#fafafa"/>

  <!-- ── axis ── -->
  <line x1="30" y1="340" x2="885" y2="340" stroke="#d0d7de" stroke-width="1.5"/>
  <polygon points="885,336 895,340 885,344" fill="#d0d7de"/>

  <!-- year labels -->
  <text x="88"  y="360" font-family="'Segoe UI Mono','Courier New',monospace" font-size="9" fill="#8c9198" text-anchor="middle">2024</text>
  <text x="258" y="360" font-family="'Segoe UI Mono','Courier New',monospace" font-size="9" fill="#8c9198" text-anchor="middle">2025</text>
  <text x="430" y="360" font-family="'Segoe UI Mono','Courier New',monospace" font-size="9" fill="#8c9198" text-anchor="middle">2026</text>
  <text x="600" y="360" font-family="'Segoe UI Mono','Courier New',monospace" font-size="9" fill="#8c9198" text-anchor="middle">2026</text>
  <text x="770" y="360" font-family="'Segoe UI Mono','Courier New',monospace" font-size="9" fill="#7c57a8" text-anchor="middle">2026 ·latest</text>

  <!-- tick marks -->
  <line x1="88"  y1="336" x2="88"  y2="344" stroke="#d0d7de" stroke-width="1"/>
  <line x1="258" y1="336" x2="258" y2="344" stroke="#d0d7de" stroke-width="1"/>
  <line x1="430" y1="336" x2="430" y2="344" stroke="#d0d7de" stroke-width="1"/>
  <line x1="600" y1="336" x2="600" y2="344" stroke="#d0d7de" stroke-width="1"/>
  <line x1="770" y1="336" x2="770" y2="344" stroke="#ba68c8" stroke-width="1" stroke-opacity="0.6"/>


  <!-- ══════════════════════════════════════
       PROJECT 1 — Credit Card Churn  (UP)
       ══════════════════════════════════════ -->
  <circle cx="88" cy="340" r="6" fill="#e57373"/>
  <circle cx="88" cy="340" r="14" fill="url(#g1)" filter="url(#blur4)" opacity="0.45"/>
  <!-- connector -->
  <line x1="88" y1="340" x2="88" y2="175" stroke="#e57373" stroke-width="1" stroke-opacity="0.25" stroke-dasharray="3 4"/>
  <line x1="88" y1="175" x2="118" y2="175" stroke="#e57373" stroke-width="1" stroke-opacity="0.25"/>
  <!-- square card 140×140 -->
  <a href="https://github.com/Misty033/Credit_Card_Churn_Detection" target="_blank">
    <g class="proj-card">
      <rect x="114" y="105" width="148" height="148" rx="10" fill="#e57373" opacity="0" filter="url(#blur6)"/>
      <rect x="118" y="109" width="140" height="140" rx="9" fill="#fff" stroke="#e57373" stroke-width="1" stroke-opacity="0.35"/>
      <!-- top accent bar -->
      <rect x="118" y="109" width="140" height="4" rx="9" fill="#e57373" opacity="0.7"/>
      <rect x="118" y="111" width="140" height="2" fill="#e57373" opacity="0.7"/>
      <!-- left bar -->
      <rect x="118" y="109" width="4" height="140" rx="9" fill="#e57373" opacity="0.7"/>
      <rect x="120" y="109" width="2" height="140" fill="#e57373" opacity="0.7"/>
      <!-- tag -->
      <text x="132" y="127" font-family="'Segoe UI Mono','Courier New',monospace" font-size="7" fill="#e57373" opacity="0.8" letter-spacing="0.5">CLASSICAL ML · XAI</text>
      <!-- name -->
      <text x="132" y="145" font-family="'Segoe UI',system-ui,sans-serif" font-size="12" font-weight="700" fill="#1f2328">Credit Card</text>
      <text x="132" y="160" font-family="'Segoe UI',system-ui,sans-serif" font-size="12" font-weight="700" fill="#1f2328">Churn</text>
      <!-- stack -->
      <text x="132" y="178" font-family="'Segoe UI Mono','Courier New',monospace" font-size="7.5" fill="#57606a">XGBoost · SHAP · LIME</text>
      <!-- year badge -->
      <rect x="132" y="187" width="34" height="12" rx="4" fill="#e57373" opacity="0.1"/>
      <text x="149" y="196" font-family="'Segoe UI Mono','Courier New',monospace" font-size="7" fill="#e57373" text-anchor="middle">2024</text>
      <!-- arrow -->
      <text x="237" y="237" font-family="monospace" font-size="13" fill="#e57373" opacity="0.5">→</text>
    </g>
  </a>


  <!-- ══════════════════════════════════════
       PROJECT 2 — Govt Scheme RAG  (DOWN)
       ══════════════════════════════════════ -->
  <circle cx="258" cy="340" r="6" fill="#4db6ac"/>
  <circle cx="258" cy="340" r="14" fill="url(#g2)" filter="url(#blur4)" opacity="0.45"/>
  <!-- connector going DOWN -->
  <line x1="258" y1="340" x2="258" y2="390" stroke="#4db6ac" stroke-width="1" stroke-opacity="0.25" stroke-dasharray="3 4"/>
  <line x1="258" y1="390" x2="288" y2="390" stroke="#4db6ac" stroke-width="1" stroke-opacity="0.25"/>
  <!-- card below axis -->
  <a href="https://github.com/Misty033/Government-Scheme-retrival-system-using-LLMs" target="_blank">
    <g class="proj-card">
      <rect x="284" y="386" width="148" height="148" rx="10" fill="#4db6ac" opacity="0" filter="url(#blur6)"/>
      <rect x="288" y="390" width="140" height="140" rx="9" fill="#fff" stroke="#4db6ac" stroke-width="1" stroke-opacity="0.35"/>
      <rect x="288" y="390" width="140" height="4" rx="9" fill="#4db6ac" opacity="0.7"/>
      <rect x="288" y="392" width="140" height="2" fill="#4db6ac" opacity="0.7"/>
      <rect x="288" y="390" width="4" height="140" rx="9" fill="#4db6ac" opacity="0.7"/>
      <rect x="290" y="390" width="2" height="140" fill="#4db6ac" opacity="0.7"/>
      <text x="302" y="408" font-family="'Segoe UI Mono','Courier New',monospace" font-size="7" fill="#4db6ac" opacity="0.8" letter-spacing="0.5">RAG · LLM</text>
      <text x="302" y="426" font-family="'Segoe UI',system-ui,sans-serif" font-size="12" font-weight="700" fill="#1f2328">Govt Scheme</text>
      <text x="302" y="441" font-family="'Segoe UI',system-ui,sans-serif" font-size="12" font-weight="700" fill="#1f2328">RAG Bot</text>
      <text x="302" y="459" font-family="'Segoe UI Mono','Courier New',monospace" font-size="7.5" fill="#57606a">ChromaDB · Gemini</text>
      <rect x="302" y="468" width="34" height="12" rx="4" fill="#4db6ac" opacity="0.1"/>
      <text x="319" y="477" font-family="'Segoe UI Mono','Courier New',monospace" font-size="7" fill="#4db6ac" text-anchor="middle">2025</text>
      <text x="407" y="518" font-family="monospace" font-size="13" fill="#4db6ac" opacity="0.5">→</text>
    </g>
  </a>


  <!-- ══════════════════════════════════════
       PROJECT 3 — NL→SQL  (UP)
       ══════════════════════════════════════ -->
  <circle cx="430" cy="340" r="6" fill="#64b5f6"/>
  <circle cx="430" cy="340" r="14" fill="url(#g3)" filter="url(#blur4)" opacity="0.45"/>
  <line x1="430" y1="340" x2="430" y2="190" stroke="#64b5f6" stroke-width="1" stroke-opacity="0.25" stroke-dasharray="3 4"/>
  <line x1="430" y1="190" x2="460" y2="190" stroke="#64b5f6" stroke-width="1" stroke-opacity="0.25"/>
  <a href="https://github.com/Misty033/slack-sql-bot" target="_blank">
    <g class="proj-card">
      <rect x="456" y="186" width="148" height="148" rx="10" fill="#64b5f6" opacity="0" filter="url(#blur6)"/>
      <rect x="460" y="190" width="140" height="140" rx="9" fill="#fff" stroke="#64b5f6" stroke-width="1" stroke-opacity="0.35"/>
      <rect x="460" y="190" width="140" height="4" rx="9" fill="#64b5f6" opacity="0.7"/>
      <rect x="460" y="192" width="140" height="2" fill="#64b5f6" opacity="0.7"/>
      <rect x="460" y="190" width="4" height="140" rx="9" fill="#64b5f6" opacity="0.7"/>
      <rect x="462" y="190" width="2" height="140" fill="#64b5f6" opacity="0.7"/>
      <text x="474" y="208" font-family="'Segoe UI Mono','Courier New',monospace" font-size="7" fill="#64b5f6" opacity="0.8" letter-spacing="0.5">NLP · INTEGRATIONS</text>
      <text x="474" y="226" font-family="'Segoe UI',system-ui,sans-serif" font-size="12" font-weight="700" fill="#1f2328">NL → SQL</text>
      <text x="474" y="241" font-family="'Segoe UI',system-ui,sans-serif" font-size="12" font-weight="700" fill="#1f2328">Slack Bot</text>
      <text x="474" y="259" font-family="'Segoe UI Mono','Courier New',monospace" font-size="7.5" fill="#57606a">OpenAI · SQLAlchemy</text>
      <rect x="474" y="268" width="34" height="12" rx="4" fill="#64b5f6" opacity="0.1"/>
      <text x="491" y="277" font-family="'Segoe UI Mono','Courier New',monospace" font-size="7" fill="#64b5f6" text-anchor="middle">2026</text>
      <text x="579" y="318" font-family="monospace" font-size="13" fill="#64b5f6" opacity="0.5">→</text>
    </g>
  </a>


  <!-- ══════════════════════════════════════
       PROJECT 4 — Newsletter Agent  (DOWN)
       ══════════════════════════════════════ -->
  <circle cx="600" cy="340" r="6" fill="#ffb74d"/>
  <circle cx="600" cy="340" r="14" fill="url(#g4)" filter="url(#blur4)" opacity="0.45"/>
  <line x1="600" y1="340" x2="600" y2="390" stroke="#ffb74d" stroke-width="1" stroke-opacity="0.25" stroke-dasharray="3 4"/>
  <line x1="600" y1="390" x2="460" y2="390" stroke="#ffb74d" stroke-width="1" stroke-opacity="0.25"/>
  <a href="https://github.com/Misty033/ai_newsletter_agent" target="_blank">
    <g class="proj-card">
      <rect x="456" y="386" width="148" height="148" rx="10" fill="#ffb74d" opacity="0" filter="url(#blur6)"/>
      <rect x="460" y="390" width="140" height="140" rx="9" fill="#fff" stroke="#ffb74d" stroke-width="1" stroke-opacity="0.35"/>
      <rect x="460" y="390" width="140" height="4" rx="9" fill="#ffb74d" opacity="0.7"/>
      <rect x="460" y="392" width="140" height="2" fill="#ffb74d" opacity="0.7"/>
      <rect x="460" y="390" width="4" height="140" rx="9" fill="#ffb74d" opacity="0.7"/>
      <rect x="462" y="390" width="2" height="140" fill="#ffb74d" opacity="0.7"/>
      <text x="474" y="408" font-family="'Segoe UI Mono','Courier New',monospace" font-size="7" fill="#ffb74d" opacity="0.8" letter-spacing="0.5">AGENTIC AI</text>
      <text x="474" y="426" font-family="'Segoe UI',system-ui,sans-serif" font-size="12" font-weight="700" fill="#1f2328">AI Newsletter</text>
      <text x="474" y="441" font-family="'Segoe UI',system-ui,sans-serif" font-size="12" font-weight="700" fill="#1f2328">Agent</text>
      <text x="474" y="459" font-family="'Segoe UI Mono','Courier New',monospace" font-size="7.5" fill="#57606a">LangChain · Airflow</text>
      <rect x="474" y="468" width="34" height="12" rx="4" fill="#ffb74d" opacity="0.1"/>
      <text x="491" y="477" font-family="'Segoe UI Mono','Courier New',monospace" font-size="7" fill="#ffb74d" text-anchor="middle">2026</text>
      <text x="579" y="518" font-family="monospace" font-size="13" fill="#ffb74d" opacity="0.5">→</text>
    </g>
  </a>


  <!-- ══════════════════════════════════════
       PROJECT 5 — AI Code Review  (UP)
       ══════════════════════════════════════ -->
  <circle cx="770" cy="340" r="7" fill="#ba68c8"/>
  <circle cx="770" cy="340" r="16" fill="url(#g5)" filter="url(#blur4)" opacity="0.5"/>
  <!-- latest badge -->
  <rect x="750" y="318" width="40" height="13" rx="4" fill="#ba68c8" opacity="0.12"/>
  <text x="770" y="327" font-family="'Segoe UI Mono','Courier New',monospace" font-size="7" fill="#ba68c8" text-anchor="middle">latest</text>
  <!-- connector -->
  <line x1="770" y1="340" x2="770" y2="155" stroke="#ba68c8" stroke-width="1" stroke-opacity="0.25" stroke-dasharray="3 4"/>
  <line x1="770" y1="155" x2="622" y2="155" stroke="#ba68c8" stroke-width="1" stroke-opacity="0.25"/>
  <a href="https://github.com/Misty033/ai-code-review-test-generation-pipeline-v1" target="_blank">
    <g class="proj-card">
      <rect x="618" y="151" width="148" height="148" rx="10" fill="#ba68c8" opacity="0" filter="url(#blur6)"/>
      <rect x="622" y="155" width="140" height="140" rx="9" fill="#fff" stroke="#ba68c8" stroke-width="1.5" stroke-opacity="0.5"/>
      <rect x="622" y="155" width="140" height="4" rx="9" fill="#ba68c8" opacity="0.75"/>
      <rect x="622" y="157" width="140" height="2" fill="#ba68c8" opacity="0.75"/>
      <rect x="622" y="155" width="4" height="140" rx="9" fill="#ba68c8" opacity="0.75"/>
      <rect x="624" y="155" width="2" height="140" fill="#ba68c8" opacity="0.75"/>
      <text x="636" y="173" font-family="'Segoe UI Mono','Courier New',monospace" font-size="7" fill="#ba68c8" opacity="0.8" letter-spacing="0.5">LOCAL LLM · DEVTOOLS</text>
      <text x="636" y="191" font-family="'Segoe UI',system-ui,sans-serif" font-size="12" font-weight="700" fill="#1f2328">AI Code</text>
      <text x="636" y="206" font-family="'Segoe UI',system-ui,sans-serif" font-size="12" font-weight="700" fill="#1f2328">Review</text>
      <text x="636" y="224" font-family="'Segoe UI Mono','Courier New',monospace" font-size="7.5" fill="#57606a">Ollama · LLM · AST</text>
      <rect x="636" y="233" width="34" height="12" rx="4" fill="#ba68c8" opacity="0.1"/>
      <text x="653" y="242" font-family="'Segoe UI Mono','Courier New',monospace" font-size="7" fill="#ba68c8" text-anchor="middle">2026</text>
      <text x="741" y="283" font-family="monospace" font-size="13" fill="#ba68c8" opacity="0.5">→</text>
    </g>
  </a>


  <!-- ══════════════════════════════════════
       MORE → link  (far right)
       ══════════════════════════════════════ -->
  <a href="https://github.com/Misty033?tab=repositories" target="_blank">
    <rect x="856" y="290" width="52" height="22" rx="11" fill="#f0f0f5" stroke="#d0d7de" stroke-width="1"/>
    <text x="882" y="304" font-family="'Segoe UI Mono','Courier New',monospace" font-size="8.5" fill="#57606a" text-anchor="middle" letter-spacing="0.3">more →</text>
  </a>

</svg>
